<?xml version="1.0" encoding="utf-8"?>
<!-- Generator: Adobe Illustrator 24.0.1, SVG Export Plug-In . SVG Version: 6.00 Build 0)  -->
<svg version="1.1" xmlns="http://www.w3.org/2000/svg" xmlns:xlink="http://www.w3.org/1999/xlink" x="0px" y="0px"
	 viewBox="0 0 46.2 48.6" style="enable-background:new 0 0 46.2 48.6;" xml:space="preserve">
<style type="text/css">
	.st0{display:none;}
	.st1{display:inline;}
	.st2{fill:#E5E8EC;}
	.st3{fill:#EAF4FE;}
	.st4{fill:#C5E1F9;}
	.st5{fill:#7EB3FF;}
	.st6{fill:none;stroke:#9AC7F7;stroke-width:2;}
	.st7{fill:#94CB78;}
	.st8{fill:none;stroke:#FFFFFF;stroke-width:2;}
	.st9{fill:#FF5931;}
	.st10{fill:none;stroke:#7EB3FF;stroke-width:2;}
	.st11{fill:#FFC400;}
	.st12{fill:#FD2227;}
	.st13{fill:#0561FC;}
	.st14{fill:#B2D2EA;}
	.st15{fill:none;stroke:#0561FC;stroke-width:2;}
	.st16{fill:none;stroke:#0450CF;stroke-width:2;}
	.st17{fill:none;stroke:#FFFFFF;stroke-width:2;stroke-linejoin:bevel;}
	.st18{fill:none;stroke:#9AC7F7;stroke-width:2;stroke-linejoin:bevel;}
	.st19{fill:#0561FC;stroke:#0561FC;stroke-width:2;}
	.st20{fill:#FFFFFF;}
	.st21{fill:#B2D2EA;stroke:#B2D2EA;stroke-width:2;}
	.st22{fill:none;stroke:#C5E1F9;stroke-width:2;}
	.st23{fill:#9AC7F7;}
	.st24{fill:#F65360;}
	.st25{fill:none;stroke:#0450CF;stroke-width:2;stroke-linecap:round;}
	.st26{fill:#FFAB01;}
	.st27{fill:none;stroke:#FFC400;stroke-width:2;}
	.st28{fill:#C5E1F9;stroke:#0561FC;stroke-width:2.0814;}
	.st29{fill:none;stroke:#FD2227;stroke-width:2;}
	.st30{fill:#7EB3FF;stroke:#7EB3FF;stroke-width:2;}
</style>
<g id="Background">
</g>
<g id="Square" class="st0">
	<g class="st1">
		<rect x="1.9" y="0.2" class="st2" width="48" height="48"/>
	</g>
	<g id="Layer_4" class="st1">
	</g>
</g>
<g id="Icons">
	<g>
		<line class="st15" x1="41.1" y1="45.6" x2="41.1" y2="48.6"/>
		<polygon class="st5" points="39.2,44.6 41.2,46.6 43.2,44.6 43.2,3.6 39.2,3.6 		"/>
		<g>
			<path class="st3" d="M0,45c0,1.8,1.5,3.3,3.3,3.3h28.5c1.8,0,3.3-1.5,3.3-3.3V3.3c0-1.8-1.5-3.3-3.3-3.3H12.1L0,12.1V45z"/>
			<polygon class="st4" points="11,11 0,21.8 0,12.1 1.1,11 			"/>
			<path class="st5" d="M12.1,0v8.8c0,1.8-1.5,3.3-3.3,3.3H0L12.1,0z"/>
		</g>
		<rect x="5.4" y="19.1" class="st4" width="6.9" height="6.9"/>
		<polyline class="st15" points="45.2,20.6 45.2,8.6 43.2,6.6 39.2,6.6 		"/>
		<line class="st15" x1="43.2" y1="24.6" x2="39.2" y2="24.6"/>
		<polyline class="st15" points="7.2,21.2 9.2,23.2 14.3,18.2 		"/>
		<line class="st6" x1="17.4" y1="21.2" x2="29.4" y2="21.2"/>
		<line class="st6" x1="17.4" y1="25.2" x2="26.4" y2="25.2"/>
		<rect x="5.4" y="30.1" class="st4" width="6.9" height="6.9"/>
		<polyline class="st15" points="7.2,32.2 9.2,34.2 14.3,29.2 		"/>
		<line class="st6" x1="17.4" y1="32.2" x2="29.4" y2="32.2"/>
		<line class="st6" x1="17.4" y1="36.2" x2="26.4" y2="36.2"/>
	</g>
</g>
</svg>
