<?xml version="1.0" encoding="utf-8"?>
<!-- Generator: Adobe Illustrator 24.0.1, SVG Export Plug-In . SVG Version: 6.00 Build 0)  -->
<svg version="1.1" xmlns="http://www.w3.org/2000/svg" xmlns:xlink="http://www.w3.org/1999/xlink" x="0px" y="0px"
	 viewBox="0 0 48.5 48" style="enable-background:new 0 0 48.5 48;" xml:space="preserve">
<style type="text/css">
	.st0{display:none;}
	.st1{display:inline;}
	.st2{fill:#E5E8EC;}
	.st3{fill:#EAF4FE;}
	.st4{fill:#C5E1F9;}
	.st5{fill:#7EB3FF;}
	.st6{fill:none;stroke:#9AC7F7;stroke-width:2;}
	.st7{fill:#94CB78;}
	.st8{fill:none;stroke:#FFFFFF;stroke-width:2;}
	.st9{fill:#FF5931;}
	.st10{fill:none;stroke:#7EB3FF;stroke-width:2;}
	.st11{fill:#FFC400;}
	.st12{fill:#FD2227;}
	.st13{fill:#0561FC;}
	.st14{fill:#B2D2EA;}
	.st15{fill:none;stroke:#0561FC;stroke-width:2;}
	.st16{fill:none;stroke:#0450CF;stroke-width:2;}
	.st17{fill:none;stroke:#FFFFFF;stroke-width:2;stroke-linejoin:bevel;}
	.st18{fill:none;stroke:#9AC7F7;stroke-width:2;stroke-linejoin:bevel;}
	.st19{fill:#0561FC;stroke:#0561FC;stroke-width:2;}
	.st20{fill:#FFFFFF;}
	.st21{fill:#B2D2EA;stroke:#B2D2EA;stroke-width:2;}
	.st22{fill:none;stroke:#C5E1F9;stroke-width:2;}
	.st23{fill:#9AC7F7;}
	.st24{fill:#F65360;}
	.st25{fill:none;stroke:#0450CF;stroke-width:2;stroke-linecap:round;}
	.st26{fill:#FFAB01;}
	.st27{fill:none;stroke:#FFC400;stroke-width:2;}
	.st28{fill:#C5E1F9;stroke:#0561FC;stroke-width:2.0814;}
	.st29{fill:none;stroke:#FD2227;stroke-width:2;}
	.st30{fill:#7EB3FF;stroke:#7EB3FF;stroke-width:2;}
</style>
<g id="Background">
</g>
<g id="Square" class="st0">
	<g class="st1">
		<rect x="2.3" y="0.1" class="st2" width="48" height="48"/>
	</g>
	<g id="Layer_4" class="st1">
	</g>
</g>
<g id="Icons">
	<g>
		<g>
			<polygon class="st3" points="7.8,0 0,7.8 0,48 36,48 36,0 			"/>
			<g>
				<polyline class="st4" points="0,15.8 0,8 7.8,8 				"/>
			</g>
			<g>
				<polyline class="st5" points="7.8,0 7.8,7.8 0,7.8 				"/>
			</g>
		</g>
		<g>
			<path class="st6" d="M41.5,6.1c0,0.9,0.4,1.7,1,2.2c0.5,0.5,1.2,0.8,2,0.8c1.7,0,3-1.3,3-3c0-1.7-1.3-3-3-3S41.5,4.4,41.5,6.1z"
				/>
			<path class="st6" d="M21.5,25.1c0,0.9,0.4,1.7,1,2.2c0.5,0.5,1.2,0.8,2,0.8c1.7,0,3-1.3,3-3c0-1.7-1.3-3-3-3
				C22.8,22.1,21.5,23.4,21.5,25.1z"/>
			<path class="st6" d="M11.5,16.1c0,0.9,0.4,1.7,1,2.2c0.5,0.5,1.2,0.8,2,0.8c1.7,0,3-1.3,3-3c0-1.7-1.3-3-3-3S11.5,14.4,11.5,16.1
				z"/>
			<line class="st6" x1="22.5" y1="23.1" x2="16.5" y2="18.1"/>
			<line class="st6" x1="27.4" y1="23.1" x2="42.5" y2="8.1"/>
			<line class="st6" x1="4.5" y1="26.1" x2="12.5" y2="18.1"/>
		</g>
		<g>
			<polyline class="st5" points="5.5,44.1 5.5,32.1 9.5,32.1 9.5,44.1 			"/>
			<polyline class="st11" points="13.5,44.1 13.5,24.1 17.5,24.1 17.5,44.1 			"/>
			<polyline class="st12" points="21.5,44.1 21.5,34.1 25.5,34.1 25.5,44.1 			"/>
			<polyline class="st13" points="29.5,44.1 29.5,30.1 33.5,30.1 33.5,44.1 			"/>
		</g>
	</g>
</g>
</svg>
