<?xml version="1.0" encoding="utf-8"?>
<!-- Generator: Adobe Illustrator 24.0.1, SVG Export Plug-In . SVG Version: 6.00 Build 0)  -->
<svg version="1.1" xmlns="http://www.w3.org/2000/svg" xmlns:xlink="http://www.w3.org/1999/xlink" x="0px" y="0px"
	 viewBox="0 0 40.2 48" style="enable-background:new 0 0 40.2 48;" xml:space="preserve">
<style type="text/css">
	.st0{display:none;}
	.st1{display:inline;}
	.st2{fill:#E5E8EC;}
	.st3{fill:#EAF4FE;}
	.st4{fill:#C5E1F9;}
	.st5{fill:#7EB3FF;}
	.st6{fill:none;stroke:#9AC7F7;stroke-width:2;}
	.st7{fill:#94CB78;}
	.st8{fill:none;stroke:#FFFFFF;stroke-width:2;}
	.st9{fill:#FF5931;}
	.st10{fill:none;stroke:#7EB3FF;stroke-width:2;}
	.st11{fill:#FFC400;}
	.st12{fill:#FD2227;}
	.st13{fill:#0561FC;}
	.st14{fill:#B2D2EA;}
	.st15{fill:none;stroke:#0561FC;stroke-width:2;}
	.st16{fill:none;stroke:#0450CF;stroke-width:2;}
	.st17{fill:none;stroke:#FFFFFF;stroke-width:2;stroke-linejoin:bevel;}
	.st18{fill:none;stroke:#9AC7F7;stroke-width:2;stroke-linejoin:bevel;}
	.st19{fill:#0561FC;stroke:#0561FC;stroke-width:2;}
	.st20{fill:#FFFFFF;}
	.st21{fill:#B2D2EA;stroke:#B2D2EA;stroke-width:2;}
	.st22{fill:none;stroke:#C5E1F9;stroke-width:2;}
	.st23{fill:#9AC7F7;}
	.st24{fill:#F65360;}
	.st25{fill:none;stroke:#0450CF;stroke-width:2;stroke-linecap:round;}
	.st26{fill:#FFAB01;}
	.st27{fill:none;stroke:#FFC400;stroke-width:2;}
	.st28{fill:#C5E1F9;stroke:#0561FC;stroke-width:2.0814;}
	.st29{fill:none;stroke:#FD2227;stroke-width:2;}
	.st30{fill:#7EB3FF;stroke:#7EB3FF;stroke-width:2;}
</style>
<g id="Background">
</g>
<g id="Square" class="st0">
	<g class="st1">
		<rect x="-6.1" y="0.2" class="st2" width="48" height="48"/>
	</g>
	<g id="Layer_4" class="st1">
	</g>
</g>
<g id="Icons">
	<g>
		<g>
			<polygon class="st3" points="7.8,0 0,7.8 0,48 36,48 36,0 			"/>
			<g>
				<polyline class="st4" points="0,15.8 0,8 7.8,8 				"/>
			</g>
			<g>
				<polyline class="st5" points="7.8,0 7.8,7.8 0,7.8 				"/>
			</g>
		</g>
		<g>
			<line class="st6" x1="7" y1="13.2" x2="17" y2="13.2"/>
			<line class="st6" x1="7" y1="17.2" x2="24" y2="17.2"/>
			<line class="st6" x1="7" y1="21.2" x2="22" y2="21.2"/>
			<line class="st6" x1="7" y1="26.2" x2="16" y2="26.2"/>
		</g>
		<g>
			<path class="st30" d="M20.7,44.6c0.8,0,1.5,0.5,2,1c0.5,0.5,1.9,1,3,1h8c1.1,0,2.2-0.9,2.5-1.9l3-11.1c0.3-1.1-0.4-1.9-1.5-1.9
				h-4c-1.1,0-2-0.9-2-2v-5c0-1.1-0.7-2-1.5-2c-0.8,0-1.9,0.8-2.3,1.8l-2.4,5.3c-0.4,1-1.6,3.3-2.6,3.8l-2.2,1"/>
			<rect x="16.2" y="32.6" class="st19" width="5" height="14"/>
		</g>
	</g>
</g>
</svg>
